# xmcd
#
# Track frame offsets: 
#        150
#        23129
#        46063
#        59953
#        77822
#        101167
#        122166
#        145312
#        163516
#        182749
#        201237
#        219843
#        248933
#
# Disc length: 3599 seconds
#
# Revision: 1
# Processed by: cddbd v1.5.2PL0 Copyright (c) Steve Scherf et al.
# Submitted via: ExactAudioCopyFreeDBPlugin 1.0
#
DISCID=bd0e0d0d
DTITLE=群星 - DTSES紫银水晶试音王2
DYEAR=2014
DGENRE=DTS ES
TTITLE0=红河谷
TTITLE1=一场游戏一场梦
TTITLE2=啊朋友再见
TTITLE3=晚秋
TTITLE4=北国之春
TTITLE5=落红泪
TTITLE6=懂你
TTITLE7=童年
TTITLE8=吻你
TTITLE9=橄榄树
TTITLE10=爱的箴言
TTITLE11=乌兰巴托的夜晚
TTITLE12=滚滚红尘
EXTD=
EXTT0=
EXTT1=
EXTT2=
EXTT3=
EXTT4=
EXTT5=
EXTT6=
EXTT7=
EXTT8=
EXTT9=
EXTT10=
EXTT11=
EXTT12=
PLAYORDER=
